#!OML:ASF E:\Mandelcareful walks\Project 1\Capture day 1\Session 1\Subject1.ASF
:FULLY-SPECIFIED
:DEGREES
1069
root -25.4332 14.9864 -7.21644 186.135 65.5684 167.875
lowerback 24.3509 0.275895 -4.31057
upperback 6.53891 -0.0493714 -0.636106
thorax -6.29864 0.289186 1.758
lowerneck -28.116 8.07539 4.34262
upperneck 13.8931 12.068 -11.978
head 10.0522 4.50733 -2.88313
rclavicle -2.78299e-014 4.85035e-014
rhumerus -25.0858 18.01 -90.7354
rradius 41.6882
rwrist -63.1523
rhand 14.512 -50.9268
rfingers 7.12502
rthumb 39.3921 -76.3334
lclavicle -2.78299e-014 4.85035e-014
lhumerus -177.749 -99.4669 273.123
lradius 54.3085
lwrist -0.280589
lhand -20.8743 -10.1367
lfingers 7.12502
lthumb 5.49574 19.772
rfemur -59.1988 -14.3163 15.8047
rtibia 60.4025
rfoot -19.4882 -21.4917
rtoes 8.21164
lfemur -39.1571 26.0883 -25.548
ltibia 62.0564
lfoot -31.8819 17.0839
ltoes -22.9488
1070
root -25.3043 14.9759 -7.22383 184.504 66.4519 166.447
lowerback 24.6955 0.0497882 -4.12948
upperback 6.5403 -0.299402 -0.448794
thorax -6.4569 0.170523 1.93234
lowerneck -28.0498 8.15965 4.03141
upperneck 13.7143 12.3418 -12.1843
head 10.0019 4.60875 -2.85568
rclavicle -4.63168e-014 1.21259e-014
rhumerus -25.2348 18.7219 -90.9187
rradius 41.8077
rwrist -63.5087
rhand 14.2552 -51.7544
rfingers 7.12502
rthumb 39.1501 -77.2313
lclavicle -4.63168e-014 1.21259e-014
lhumerus -178.126 -100.031 273.507
lradius 54.556
lwrist 0.00237399
lhand -21.3175 -10.0829
lfingers 7.12502
lthumb 5.06778 19.8365
rfemur -58.8137 -14.1633 15.5354
rtibia 60.7417
rfoot -19.6356 -20.7662
rtoes 7.00177
lfemur -38.3093 26.6304 -25.3532
ltibia 62.4615
lfoot -31.2856 17.922
ltoes -26.3309
1071
root -25.1822 14.9748 -7.23857 182.766 67.3012 164.759
lowerback 24.8609 -0.172832 -3.6347
upperback 6.47067 -0.490322 -0.512542
thorax -6.61557 0.0747383 1.63656
lowerneck -27.761 8.17405 4.25237
upperneck 13.5109 12.348 -12.5496
head 9.92848 4.60583 -3.02154
rclavicle 2.78299e-014 1.43125e-014
rhumerus -25.2741 18.8039 -91.2881
rradius 41.7768
rwrist -63.7802
rhand 13.2616 -51.8393
rfingers 7.12502
rthumb 38.2129 -77.5803
lclavicle 2.78299e-014 1.43125e-014
lhumerus -178.784 -100.111 273.9
lradius 54.9588
lwrist 0.279388
lhand -21.1563 -10.1525
lfingers 7.12502
lthumb 5.22347 19.7632
rfemur -58.6509 -14.26 15.3007
rtibia 61.1709
rfoot -20.0673 -19.9159
rtoes 7.23521
lfemur -37.8469 27.104 -25.3151
ltibia 63.272
lfoot -30.2241 17.8359
ltoes -26.5538
1072
root -25.0592 14.9713 -7.24758 180.738 68.2365 162.771
lowerback 25.0092 -0.312382 -3.13681
upperback 6.43107 -0.576115 -0.687417
thorax -6.74157 0.0289439 1.18646
lowerneck -27.5897 8.16226 4.62308
upperneck 13.4266 12.2795 -12.9387
head 9.9213 4.56252 -3.23148
rclavicle 1.63003e-014 -7.39479e-014
rhumerus -25.0937 18.5806 -91.6462
rradius 41.5767
rwrist -63.839
rhand 8.8507 -39.9729
rfingers 7.12502
rthumb 34.0355 -66.7488
lclavicle 1.63003e-014 -7.39479e-014
lhumerus -178.646 -99.8608 273.462
lradius 55.2873
lwrist 0.348955
lhand -20.9072 -10.3707
lfingers 7.12502
lthumb 5.46392 19.5388
rfemur -58.467 -14.0591 14.9242
rtibia 61.6101
rfoot -20.5325 -19.2728
rtoes 7.32975
lfemur -37.4815 27.4234 -25.0775
ltibia 64.5765
lfoot -29.2594 15.9697
ltoes -22.0405
1073
root -24.9324 14.955 -7.25074 178.523 69.1711 160.647
lowerback 25.2208 -0.553802 -2.91459
upperback 6.47574 -0.828758 -0.602552
thorax -6.79139 -0.092869 1.22902
lowerneck -27.7993 8.2748 4.28025
upperneck 13.3871 12.6273 -13.1883
head 9.97832 4.67536 -3.19485
rclavicle 4.25399e-014 1.82882e-014
rhumerus -24.4951 19.0052 -91.4258
rradius 41.2802
rwrist -62.7952
rhand 7.56044 -37.3253
rfingers 7.12502
rthumb 32.809 -64.3656
lclavicle 4.25399e-014 1.82882e-014
lhumerus -176.956 -100.283 271.91
lradius 55.2731
lwrist 0.383494
lhand -21.1351 -10.2292
lfingers 7.12502
lthumb 5.24393 19.686
rfemur -58.2601 -13.6597 14.5022
rtibia 62.0334
rfoot -20.7327 -18.9067
rtoes 6.71672
lfemur -37.3696 27.7971 -24.767
ltibia 66.3148
lfoot -27.6129 14.8827
ltoes -20.0181
1074
root -24.8038 14.9461 -7.25416 176.527 69.9998 158.795
lowerback 25.3288 -0.802309 -2.35561
upperback 6.54541 -1.00957 -0.627667
thorax -6.77584 -0.18419 0.936352
lowerneck -27.9589 8.373 4.26756
upperneck 13.4485 12.8597 -13.5107
head 10.0796 4.73859 -3.25861
rclavicle -7.55382e-015 -1.19271e-015
rhumerus -23.5024 18.4787 -91.0002
rradius 40.7862
rwrist -59.6791
rhand 8.41072 -38.0069
rfingers 7.12502
rthumb 33.6174 -64.8747
lclavicle -7.55382e-015 -1.19271e-015
lhumerus -175.927 -100.523 270.849
lradius 55.1956
lwrist 0.318372
lhand -21.2916 -9.87494
lfingers 7.12502
lthumb 5.09277 20.0439
rfemur -57.9642 -13.3012 14.184
rtibia 62.436
rfoot -20.9692 -18.5205
rtoes 5.89245
lfemur -37.8334 28.4927 -24.6023
ltibia 68.3304
lfoot -24.3458 15.8639
ltoes -23.6994
1075
root -24.6713 14.9402 -7.25639 174.506 70.7976 157.025
lowerback 25.4725 -0.935072 -1.80507
upperback 6.44215 -1.06954 -0.709601
thorax -6.97639 -0.221297 0.551559
lowerneck -27.1018 8.47372 4.94268
upperneck 13.4091 12.9091 -14.1496
head 10.0309 4.76496 -3.59538
rclavicle 3.85642e-014 -3.29983e-014
rhumerus -23.5519 18.997 -91.5482
rradius 40.3393
rwrist -59.4818
rhand 8.44298 -38.1736
rfingers 7.12502
rthumb 33.6481 -65.0348
lclavicle 3.85642e-014 -3.29983e-014
lhumerus -177.366 -100.527 272.023
lradius 55.2151
lwrist -0.142763
lhand -20.8099 -9.60765
lfingers 7.12502
lthumb 5.5579 20.2995
rfemur -57.5211 -12.926 13.9069
rtibia 62.897
rfoot -21.5208 -17.9156
rtoes 5.56566
lfemur -38.4048 29.1937 -24.2926
ltibia 70.5238
lfoot -20.8681 16.7142
ltoes -25.5059
1076
root -24.5379 14.9226 -7.25943 172.632 71.5707 155.434
lowerback 25.6053 -1.21916 -1.24587
upperback 6.49233 -1.28888 -0.659222
thorax -6.99723 -0.331348 0.354459
lowerneck -27.1863 8.62848 4.84627
upperneck 13.7037 13.2655 -14.387
head 10.2058 4.87944 -3.59546
rclavicle 5.24792e-014 -3.97569e-014
rhumerus -23.5528 20.5722 -92.0991
rradius 40.1889
rwrist -60.9591
rhand 7.96661 -38.3496
rfingers 7.12502
rthumb 33.1953 -65.3084
lclavicle 5.24792e-014 -3.97569e-014
lhumerus -176.506 -100.872 271
lradius 55.1138
lwrist -0.316339
lhand -21.1008 -9.71736
lfingers 7.12502
lthumb 5.27698 20.1969
rfemur -57.0834 -12.5665 13.7403
rtibia 63.4139
rfoot -22.1669 -17.2905
rtoes 5.70342
lfemur -38.9474 29.6891 -23.7007
ltibia 72.7585
lfoot -17.961 17.0901
ltoes -22.1223
1077
root -24.4072 14.9038 -7.2669 171.136 72.326 154.159
lowerback 25.5579 -1.46705 -0.589922
upperback 6.58095 -1.42599 -0.51201
thorax -6.88887 -0.404263 0.180613
lowerneck -27.3235 8.69958 4.60232
upperneck 13.9529 13.5501 -14.5827
head 10.3537 4.95805 -3.56933
rclavicle 4.53229e-014 -1.19271e-014
rhumerus -23.8627 22.405 -92.555
rradius 40.6826
rwrist -63.7931
rhand 7.30135 -38.6674
rfingers 7.12502
rthumb 32.5625 -65.7589
lclavicle 4.53229e-014 -1.19271e-014
lhumerus -174.975 -100.86 269.416
lradius 54.9663
lwrist 0.369731
lhand -22.4535 -9.84636
lfingers 7.12502
lthumb 3.97083 20.0964
rfemur -56.7498 -12.3307 13.7685
rtibia 63.9351
rfoot -22.6814 -16.7518
rtoes 5.48885
lfemur -39.6604 30.0891 -23.0464
ltibia 74.8472
lfoot -15.15 17.4613
ltoes -17.8846
1078
root -24.2749 14.8895 -7.27933 169.282 73.1367 152.459
lowerback 25.3828 -1.59024 0.0363543
upperback 6.81901 -1.40768 -0.475866
thorax -6.5551 -0.39681 -0.148849
lowerneck -28.0364 8.78402 4.55158
upperneck 14.3806 13.7879 -14.7333
head 10.6688 4.99098 -3.55771
rclavicle 3.18055e-014 -6.36111e-015
rhumerus -23.4102 22.717 -92.37
rradius 40.7507
rwrist -64.0142
rhand 7.27139 -39.1022
rfingers 7.12502
rthumb 32.534 -66.1996
lclavicle 3.18055e-014 -6.36111e-015
lhumerus -171.293 -100.487 265.646
lradius 54.9515
lwrist 1.15482
lhand -22.7531 -9.97839
lfingers 7.12502
lthumb 3.68156 19.9696
rfemur -56.4982 -12.2266 13.7866
rtibia 64.483
rfoot -23.1803 -16.0994
rtoes 4.87284
lfemur -40.3224 30.4207 -22.5369
ltibia 76.6055
lfoot -12.9359 17.4609
ltoes -17.0526
1079
root -24.1442 14.8676 -7.29508 166.639 73.9677 149.983
lowerback 25.3747 -1.71333 0.534059
upperback 6.86985 -1.45447 -0.601684
thorax -6.51254 -0.423272 -0.55783
lowerneck -28.2082 8.924 4.6509
upperneck 14.7266 14.0068 -14.7818
head 10.8606 5.06088 -3.54667
rclavicle 4.77083e-015 -9.54166e-015
rhumerus -22.9217 22.1542 -92.1781
rradius 40.1335
rwrist -61.5688
rhand 7.87168 -39.5472
rfingers 7.12502
rthumb 33.105 -66.5252
lclavicle 4.77083e-015 -9.54166e-015
lhumerus -170.089 -100.284 264.153
lradius 55.0042
lwrist 1.53295
lhand -22.1473 -10.1115
lfingers 7.12502
lthumb 4.26651 19.8255
rfemur -56.1687 -12.101 13.6066
rtibia 65.0489
rfoot -23.9026 -15.2553
rtoes 4.75873
lfemur -40.7516 30.559 -22.1808
ltibia 77.8566
lfoot -11.7759 16.7501
ltoes -17.2459
1080
root -24.0268 14.8325 -7.31031 163.775 74.6089 147.219
lowerback 25.4049 -1.82626 0.706419
upperback 6.90055 -1.55616 -0.576608
thorax -6.4995 -0.473864 -0.598141
lowerneck -28.2866 9.08148 4.64742
upperneck 14.9104 14.2979 -14.9293
head 10.9895 5.16205 -3.53959
rclavicle -2.78299e-014 -1.98785e-014
rhumerus -22.7025 22.451 -92.046
rradius 39.7369
rwrist -60.3982
rhand 8.2674 -39.8725
rfingers 7.12502
rthumb 33.4812 -66.7699
lclavicle -2.78299e-014 -1.98785e-014
lhumerus -170.039 -100.435 264.053
lradius 54.9519
lwrist 1.50301
lhand -21.9638 -10.2473
lfingers 7.12502
lthumb 4.44369 19.6861
rfemur -55.8263 -12.1161 13.344
rtibia 65.6854
rfoot -24.8844 -14.1449
rtoes 5.76341
lfemur -41.3214 30.2252 -21.9389
ltibia 78.6015
lfoot -11.4321 15.1472
ltoes -18.1492
1081
root -23.916 14.8232 -7.32439 161.556 75.1821 144.915
lowerback 25.3829 -1.92899 1.00725
upperback 6.80541 -1.62963 -0.571481
thorax -6.60362 -0.518454 -0.741601
lowerneck -28.239 9.26496 5.05403
upperneck 15.1095 14.5136 -15.2528
head 11.144 5.2359 -3.6789
rclavicle -1.19271e-014 -1.51076e-014
rhumerus -22.8115 23.1787 -92.1522
rradius 39.8005
rwrist -60.7494
rhand 8.25204 -40.1729
rfingers 7.12502
rthumb 33.4666 -67.0735
lclavicle -1.19271e-014 -1.51076e-014
lhumerus -171.046 -100.515 264.973
lradius 54.8367
lwrist 1.23049
lhand -21.8891 -10.2724
lfingers 7.12502
lthumb 4.51588 19.6594
rfemur -56.0849 -12.1057 13.2402
rtibia 66.1769
rfoot -24.8677 -14.0131
rtoes 3.67443
lfemur -42.128 29.5086 -21.6611
ltibia 78.672
lfoot -11.7462 13.0683
ltoes -21.8666
1082
root -23.804 14.8096 -7.34473 159.156 75.8945 142.523
lowerback 25.4586 -1.93347 1.30207
upperback 6.77415 -1.5672 -0.546028
thorax -6.68214 -0.494783 -0.899952
lowerneck -28.3079 9.39527 5.43998
upperneck 15.3009 14.6574 -15.5591
head 11.3067 5.27329 -3.82216
rclavicle 7.15625e-015 2.8625e-014
rhumerus -22.7141 23.6003 -92.0364
rradius 39.9057
rwrist -60.7743
rhand 8.31498 -40.7011
rfingers 7.12502
rthumb 33.5265 -67.5888
lclavicle 7.15625e-015 2.8625e-014
lhumerus -170.828 -100.316 264.769
lradius 54.848
lwrist 1.33086
lhand -22.095 -10.0138
lfingers 7.12502
lthumb 4.31708 19.9222
rfemur -56.0447 -11.8525 13.1596
rtibia 66.5759
rfoot -25.1399 -13.6653
rtoes 2.52162
lfemur -42.7558 28.6679 -21.1502
ltibia 78.2642
lfoot -12.871 11.3262
ltoes -24.7005
